<svg xmlns="http://www.w3.org/2000/svg" version="1.1" xmlns:xlink="http://www.w3.org/1999/xlink" xmlns:svgjs="http://svgjs.dev/svgjs" width="1440" height="560" preserveAspectRatio="none" viewBox="0 0 1440 560">
    <g clip-path="url(&quot;#SvgjsClipPath1146&quot;)" fill="none">
        <rect width="1440" height="560" x="0" y="0" fill="url(&quot;#SvgjsLinearGradient1147&quot;)"></rect>
        <g>
            <path d="M20.391986045047712 411.5354527622078Q44.016653488610054 363.35816432478214 67.64132093217239 388.8557720163879Q91.26598837573474 345.5633775350308 114.89065581929708 388.8557720163879Q138.5153232628594 347.06085825668174 162.13999070642174 388.8557720163879Q185.7646581499841 334.6095941419301 209.38932559354643 411.5354527622078L20.391986045047712 411.5354527622078Z " fill="#abdff5" stroke-width="1" stroke="#4a5568"></path>
        </g>
        <g>
            <path d="M778.9010997164733 403.19801951647156Q803.4265611605862 354.2287193075904 827.9520226046992 379.65357653012313Q852.4774840488121 340.0922169764412 877.0029454929252 379.65357653012313Q901.5284069370381 332.96892282081535 926.053868381151 379.65357653012313Q950.579329825264 343.1671348994504 975.104791269377 403.19801951647156L778.9010997164733 403.19801951647156Z " fill="rgba(250, 254, 255, 1)" stroke-width="1" stroke="#4a5568"></path>
        </g>
        <g>
            <path d="M532.5766375195384 229.12170369488368Q576.3602194142335 145.01788503497238 620.1438013089286 197.59752473070319Q663.9273832036238 160.44060340957108 707.7109650983189 197.59752473070319Q751.494546993014 138.4574383636164 795.278128887709 229.12170369488368L532.5766375195384 229.12170369488368Z " fill="#abdff5" stroke-width="1" stroke="#4a5568"></path>
        </g>
        <g>
            <path d="M950.894992177311 106.23774259530293Q1000.0149405984935 8.652116748491615 1049.134889019676 70.8713797320516Q1098.2548374408582 -9.145417608771787 1147.3747858620407 70.8713797320516Q1196.4947342832231 8.76342742356676 1245.6146827044054 106.23774259530293L950.894992177311 106.23774259530293Z " fill="rgba(250, 254, 255, 1)" stroke-width="1" stroke="#4a5568"></path>
        </g>
        <g>
            <path d="M127.18065372377794 137.1425588009742Q163.07760671719132 46.53668474674622 198.9745597106047 102.68148392729735Q234.8715127040181 65.56475325484412 270.76846569743145 102.68148392729735Q306.6654186908449 46.72798043732952 342.56237168425827 102.68148392729735Q378.45932467767165 40.51877601371946 414.356277671085 137.1425588009742L127.18065372377794 137.1425588009742Z " fill="#63c9f3" stroke-width="1" stroke="#4a5568"></path>
        </g>
        <g>
            <path d="M1114.4511306528304 432.04615775264654Q1168.1309607081432 353.37381248696767 1221.8107907634562 393.3966801128213Q1275.490620818769 331.26390034691144 1329.170450874082 393.3966801128213Q1382.8502809293948 347.99251062836026 1436.5301109847078 432.04615775264654L1114.4511306528304 432.04615775264654Z " fill="#abdff5" stroke-width="1" stroke="#4a5568"></path>
        </g>
        <g>
            <path d="M232.53394977572833 446.5473402222285Q263.89732665747056 348.9412507694565 295.2607035392127 416.438498415756Q326.6240804209549 349.3127713104421 357.9874573026971 416.438498415756Q389.35083418443935 369.3318178957211 420.7142110661815 416.438498415756Q452.0775879479237 361.95283366659305 483.4409648296659 446.5473402222285L232.53394977572833 446.5473402222285Z " fill="rgba(250, 254, 255, 1)" stroke-width="1" stroke="#4a5568"></path>
        </g>
    </g>
    <defs>
        <clipPath id="SvgjsClipPath1146">
            <rect width="1440" height="560" x="0" y="0"></rect>
        </clipPath>
        <linearGradient x1="15.28%" y1="-39.29%" x2="84.72%" y2="139.29%" gradientUnits="userSpaceOnUse" id="SvgjsLinearGradient1147">
            <stop stop-color="#0e2a47" offset="0"></stop>
            <stop stop-color="#00459e" offset="1"></stop>
        </linearGradient>
    </defs>
</svg>