<svg xmlns="http://www.w3.org/2000/svg" version="1.1" xmlns:xlink="http://www.w3.org/1999/xlink" xmlns:svgjs="http://svgjs.dev/svgjs" width="1440" height="560" preserveAspectRatio="none" viewBox="0 0 1440 560">
   
    <g mask="url(&quot;#SvgjsMask1107&quot;)" fill="none">
        <rect width="1440" height="560" x="0" y="0" fill="url(&quot;#SvgjsLinearGradient1108&quot;)"></rect>
        <path d="M1488 560L0 560 L0 376.72Q11.91 268.63, 120 280.54Q186.56 227.11, 240 293.67Q311.96 245.63, 360 317.59Q441.76 279.35, 480 361.1Q534.8 295.9, 600 350.71Q653.76 284.47, 720 338.23Q752.63 250.86, 840 283.48Q886.58 258.06, 912 304.64Q972.53 293.17, 984 353.7Q987.38 285.08, 1056 288.46Q1091.54 252, 1128 287.53Q1204.07 291.6, 1200 367.67Q1224.6 320.27, 1272 344.87Q1288.01 288.88, 1344 304.88Q1391.91 280.79, 1416 328.7Q1469.02 309.72, 1488 362.73z" fill="#32325d"></path>
        <path d="M1488 560L0 560 L0 378.26Q30.61 336.87, 72 367.47Q143.73 319.2, 192 390.93Q276.77 355.7, 312 440.47Q357.54 366.01, 432 411.55Q484 343.56, 552 395.56Q625.47 349.03, 672 422.51Q701.27 331.78, 792 361.06Q871.65 320.71, 912 400.36Q957.14 373.5, 984 418.65Q995.51 358.16, 1056 369.68Q1126.84 320.51, 1176 391.35Q1221.79 365.14, 1248 410.93Q1320.78 363.71, 1368 436.49Q1421.56 370.05, 1488 423.6z" fill="#84b6e0"></path>
        <path d="M1512 560L0 560 L0 484.64Q56.68 421.31, 120 477.99Q198.86 436.85, 240 515.71Q271.69 427.4, 360 459.09Q387.9 414.99, 432 442.88Q511.84 402.72, 552 482.56Q602.82 461.38, 624 512.2Q627.35 443.55, 696 446.9Q725.4 404.3, 768 433.71Q855.79 401.5, 888 489.29Q916.28 445.58, 960 473.86Q1001.88 395.75, 1080 437.63Q1134.76 372.39, 1200 427.15Q1283.92 391.07, 1320 475Q1393.14 428.14, 1440 501.29Q1484.21 473.5, 1512 517.72z" fill="#5d5fa4"></path>
        <path d="M1512 560L0 560 L0 547.8Q51.95 527.75, 72 579.69Q99.61 535.3, 144 562.91Q168.22 467.13, 264 491.35Q336.47 443.82, 384 516.3Q451.06 463.36, 504 530.42Q557.25 511.67, 576 564.92Q644.84 513.76, 696 582.6Q726.11 492.71, 816 522.82Q896.99 483.81, 936 564.8Q988.93 497.73, 1056 550.67Q1066.38 489.05, 1128 499.44Q1170.35 469.79, 1200 512.14Q1248.01 488.14, 1272 536.15Q1326.51 470.66, 1392 525.18Q1480.78 493.96, 1512 582.75z" fill="#ffffff"></path>
    </g>
    <defs>
        <mask id="SvgjsMask1107">
            <rect width="1440" height="560" fill="#ffffff"></rect>
        </mask>
        <linearGradient x1="0%" y1="50%" x2="100%" y2="50%" gradientUnits="userSpaceOnUse" id="SvgjsLinearGradient1108">
            <stop stop-color="#32325d" offset="0"></stop>
            <stop stop-color="#5ea2fc" offset="1"></stop>
        </linearGradient>
    </defs>
</svg>